<svg width="171" height="266" viewBox="0 0 171 266" fill="none" xmlns="http://www.w3.org/2000/svg">
<rect x="0.5" y="0.5" width="170" height="265" rx="9.5" fill="white" stroke="black"/>
<line x1="17.998" y1="29.4961" x2="153.002" y2="29.4961" stroke="black" stroke-width="8"/>
<line x1="31" y1="237" x2="140.004" y2="237" stroke="black" stroke-width="26" stroke-linecap="round"/>
<line x1="18" y1="65" x2="153.004" y2="65" stroke="#929292" stroke-width="4"/>
<line x1="18" y1="75" x2="153.004" y2="75" stroke="#929292" stroke-width="4"/>
<line x1="18" y1="85" x2="153.004" y2="85" stroke="#929292" stroke-width="4"/>
<line x1="44" y1="106" x2="93" y2="106" stroke="black" stroke-width="4"/>
<line x1="44" y1="128" x2="93" y2="128" stroke="black" stroke-width="4"/>
<line x1="17.9997" y1="45.0078" x2="114" y2="45.0002" stroke="black" stroke-width="8"/>
<rect x="18.5" y="99.5" width="13" height="13" rx="3.5" fill="#D9D9D9" stroke="black"/>
<rect x="18.5" y="121.5" width="13" height="13" rx="3.5" fill="#D9D9D9" stroke="black"/>
<line x1="44" y1="150" x2="93" y2="150" stroke="black" stroke-width="4"/>
<rect x="18.5" y="143.5" width="13" height="13" rx="3.5" fill="#D9D9D9" stroke="black"/>
<g clip-path="url(#clip0_20_1551)">
<path d="M23.5 152.1L21.4 150L20.7 150.7L23.5 153.5L29.5 147.5L28.8 146.8L23.5 152.1Z" fill="black"/>
</g>
<g clip-path="url(#clip1_20_1551)">
<path d="M23.5 108.1L21.4 106L20.7 106.7L23.5 109.5L29.5 103.5L28.8 102.8L23.5 108.1Z" fill="black"/>
</g>
<defs>
<clipPath id="clip0_20_1551">
<rect width="12" height="12" fill="white" transform="translate(19 144)"/>
</clipPath>
<clipPath id="clip1_20_1551">
<rect width="12" height="12" fill="white" transform="translate(19 100)"/>
</clipPath>
</defs>
</svg>
