<svg width="171" height="266" viewBox="0 0 171 266" fill="none" xmlns="http://www.w3.org/2000/svg">
<rect x="0.5" y="0.5" width="170" height="265" rx="9.5" fill="white" stroke="black"/>
<line x1="31" y1="237" x2="140.004" y2="237" stroke="black" stroke-width="26" stroke-linecap="round"/>
<line x1="17" y1="134" x2="152.004" y2="134" stroke="#929292" stroke-width="4"/>
<line x1="17" y1="144" x2="152.004" y2="144" stroke="#929292" stroke-width="4"/>
<line x1="17" y1="154" x2="152.004" y2="154" stroke="#929292" stroke-width="4"/>
<line x1="16.9997" y1="114.008" x2="113" y2="114" stroke="black" stroke-width="8"/>
<line x1="16.9981" y1="98.4961" x2="152.002" y2="98.4961" stroke="black" stroke-width="8"/>
<mask id="path-8-inside-1_20_1444" fill="white">
<path d="M0 10C0 4.47715 4.47715 0 10 0H161C166.523 0 171 4.47715 171 10V86H0V10Z"/>
</mask>
<path d="M0 10C0 4.47715 4.47715 0 10 0H161C166.523 0 171 4.47715 171 10V86H0V10Z" fill="#727272" fill-opacity="0.8"/>
<path d="M-1 10C-1 3.92487 3.92487 -1 10 -1H161C167.075 -1 172 3.92487 172 10H170C170 5.02944 165.971 1 161 1H10C5.02944 1 1 5.02944 1 10H-1ZM171 86H0H171ZM-1 86V10C-1 3.92487 3.92487 -1 10 -1V1C5.02944 1 1 5.02944 1 10V86H-1ZM161 -1C167.075 -1 172 3.92487 172 10V86H170V10C170 5.02944 165.971 1 161 1V-1Z" fill="black" mask="url(#path-8-inside-1_20_1444)"/>
</svg>
